<svg height="480pt" viewBox="0 0 480.01483 480" width="480pt" xmlns="http://www.w3.org/2000/svg"><path d="m339.289062 136.46875c3.160157 12.933594 4.746094 26.203125 4.71875 39.519531.066407 54.75-26.640624 106.074219-71.519531 137.4375-8.722656 6.230469-18.050781 11.5625-27.839843 15.921875-14.710938 6.628906-30.320313 11.046875-46.320313 13.121094 11.273437 23.3125 28.597656 43.175781 50.160156 57.519531 8.894531 5.960938 18.453125 10.875 28.480469 14.640625 16.292969 6.226563 33.59375 9.398438 51.039062 9.359375 77.152344-.246093 140.40625-61.257812 143.429688-138.355469 3.023438-77.09375-55.25-142.875-132.148438-149.164062zm0 0" fill="#9bc9ff"/><path d="m176.007812 39.988281c-61.992187-.023437-116.148437 41.894531-131.671874 101.910157-15.519532 60.015624 11.523437 122.933593 65.75 152.96875 20.171874 11.195312 42.851562 17.085937 65.921874 17.121093 14.578126.03125 29.0625-2.320312 42.878907-6.960937 11.597656-3.824219 22.609375-9.238282 32.71875-16.078125 49.785156-33.28125 71.929687-95.21875 54.527343-152.519531-17.398437-57.296876-70.242187-96.464844-130.125-96.441407zm0 0" fill="#9bc9ff"/><path d="m176.007812 343.988281c7.464844.019531 14.925782-.488281 22.320313-1.519531 16-2.074219 31.609375-6.492188 46.320313-13.121094 9.789062-4.359375 19.117187-9.691406 27.839843-15.921875 44.878907-31.363281 71.585938-82.6875 71.519531-137.4375.027344-13.316406-1.558593-26.585937-4.71875-39.519531-20.570312-85.277344-103.25-140.402344-189.878906-126.59375s-148.074218 91.902344-141.113281 179.347656c6.960937 87.445313 79.988281 154.835938 167.710937 154.765625zm-136-168c-.042968-64.886719 45.757813-120.769531 109.390626-133.464843 63.632812-12.695313 127.371093 21.332031 152.230468 81.269531 24.859375 59.933593 3.917969 129.085937-50.023437 165.15625-10.109375 6.839843-21.121094 12.253906-32.71875 16.078125-13.816407 4.640625-28.300781 6.992187-42.878907 6.960937-23.070312-.035156-45.75-5.925781-65.921874-17.121093-43.199219-23.976563-70.019532-69.472657-70.078126-118.878907zm0 0" fill="#9bc9ff"/><g fill="#1e81ce"><path d="m106.214844 301.867188c11.269531 6.304687 23.355468 11.027343 35.914062 14.03125h.0625c11.0625 2.734374 22.417969 4.105468 33.816406 4.089843 15.425782.027344 30.753907-2.457031 45.382813-7.359375h.046875c12.277344-4.054687 23.933594-9.785156 34.640625-17.027344 53.625-35.882812 76.832031-103.0625 56.792969-164.394531-20.039063-61.332031-78.429688-101.851562-142.898438-99.152343-64.46875 2.695312-119.273437 47.949218-134.117187 110.742187s13.894531 127.796875 70.328125 159.078125zm-58.207032-125.878907c-.039062-61.070312 43.070313-113.664062 102.960938-125.609375 59.886719-11.949218 119.875 20.078125 143.273438 76.488282 23.394531 56.410156 3.683593 121.492187-47.082032 155.441406-9.503906 6.429687-19.847656 11.515625-30.746094 15.109375h-.054687c-22.699219 7.539062-47.0625 8.558593-70.3125 2.945312h-.085937c-11.171876-2.664062-21.917969-6.859375-31.9375-12.472656-40.660157-22.578125-65.917969-65.394531-66.015626-111.902344zm0 0"/><path d="m345.519531 129.195312c-20.847656-75.664062-89.292969-128.363281-167.773437-129.179687-78.476563-.8125-148.003906 50.453125-170.417969 125.667969s7.703125 156.175781 73.824219 198.457031c-14.921875 34.554687-11.417969 74.300781 9.3125 105.714844 20.734375 31.414062 55.902344 50.261719 93.542968 50.132812 39.914063.140625 76.847657-21.101562 96.800782-55.671875 15.222656 5.058594 31.15625 7.652344 47.199218 7.671875 80.527344.058594 147.105469-62.734375 151.753907-143.125 4.648437-80.394531-54.246094-150.441406-134.242188-159.667969zm-329.511719 46.792969c.023438-81.015625 60.597657-149.226562 141.042969-158.824219 80.441407-9.601562 155.367188 42.441407 174.453125 121.175782 3.015625 12.320312 4.527344 24.960937 4.503906 37.648437-.03125 52.144531-25.472656 101.007813-68.175781 130.933594-8.289062 5.910156-17.152343 10.976563-26.449219 15.121094-10.546874 4.738281-21.585937 8.300781-32.910156 10.632812-3.707031.757813-7.429687 1.375-11.160156 1.855469l-.304688.039062c-6.960937.960938-13.976562 1.433594-21 1.417969-88.367187 0-160-71.636719-160-160zm168 288c-31.933593.097657-61.8125-15.738281-79.660156-42.222656-17.847656-26.480469-21.308594-60.121094-9.226562-89.683594 24.871094 13.296875 52.683594 20.140625 80.886718 19.90625 5.933594-.023437 11.859376-.355469 17.757813-1 11.867187 22.449219 29.148437 41.578125 50.28125 55.65625 3.089844 2.0625 6.257813 3.949219 9.449219 5.757813l2.519531 1.394531c2.816406 1.519531 5.664063 2.957031 8.535156 4.277344.351563.160156.695313.367187 1.046875.527343-17.429687 28.316407-48.34375 45.511719-81.589844 45.386719zm144-48c-16.488281.042969-32.84375-2.960937-48.242187-8.855469-9.453125-3.554687-18.464844-8.1875-26.855469-13.808593-3.894531-2.613281-7.648437-5.433594-11.246094-8.441407-.625-.511718-1.257812-1.007812-1.871093-1.527343-3.402344-2.914063-6.640625-5.992188-9.738281-9.207031-.605469-.632813-1.199219-1.28125-1.792969-1.929688-3.105469-3.335938-6.042969-6.824219-8.796875-10.457031-.265625-.34375-.496094-.710938-.753906-1.054688-2.640626-3.582031-5.101563-7.292969-7.382813-11.128906-.207031-.34375-.433594-.679687-.632813-1.023437l.558594-.128907c.800782-.152343 1.53125-.359375 2.296875-.519531 2.960938-.648438 5.921875-1.359375 8.855469-2.160156 1.199219-.328125 2.402344-.6875 3.59375-1.039063 2.625-.773437 5.234375-1.617187 7.832031-2.527343 1.113281-.390626 2.230469-.761719 3.351563-1.175782 3.609375-1.34375 7.199218-2.769531 10.734375-4.351562 10.253906-4.570313 20.023437-10.152344 29.160156-16.664063h.042969c55.824218-39.121093 83.984375-106.996093 72.246094-174.144531 69.882812 11.300781 119.398437 74.34375 113.816406 144.914062-5.578125 70.574219-64.382813 125.050782-135.175782 125.230469zm0 0"/><path d="m184.007812 431.988281c-35.332031-.039062-63.960937-28.671875-64-64h-16c.046876 44.160157 35.835938 79.949219 80 80 12.351563.035157 24.539063-2.828125 35.582032-8.351562l-7.132813-14.320313c-8.832031 4.410156-18.578125 6.695313-28.449219 6.671875zm0 0"/><path d="m320.007812 367.988281h16v32h-16zm0 0"/><path d="m261.078125 379.914062 16-27.710937 13.855469 7.996094-15.996094 27.714843zm0 0"/><path d="m365.078125 360.191406 13.855469-8.003906 16 27.714844-13.855469 8zm0 0"/><path d="m400.214844 330.917969 8-13.855469 27.710937 16-8 13.855469zm0 0"/><path d="m416.007812 271.988281h32v16h-32zm0 0"/><path d="m400.214844 229.058594 27.714844-15.996094 7.996093 13.855469-27.714843 16zm0 0"/><path d="m365.085938 199.777344 15.996093-27.714844 13.859375 8-16 27.714844zm0 0"/><path d="m145.664062 137.644531 22.34375-22.34375v132.6875h-24c-4.417968 0-8 3.582031-8 8s3.582032 8 8 8h64c4.417969 0 8-3.582031 8-8s-3.582031-8-8-8h-24v-152c0-3.234375-1.949218-6.152343-4.9375-7.390625-2.992187-1.238281-6.429687-.554687-8.71875 1.734375l-36 36c-3.03125 3.136719-2.988281 8.128907.097657 11.214844 3.085937 3.085937 8.074219 3.128906 11.214843.097656zm0 0"/></g></svg>