<svg xmlns="http://www.w3.org/2000/svg" width="174.31" height="49.964" viewBox="0 0 174.31 49.964">
    <defs>
        <style>.a{fill:#2b2d32;}.b{fill:#0080ff;}</style>
    </defs>
    <g transform="translate(-675.64 -961.06)">
        <path class="a" d="M794.007,997.532h-.053l-6.348-11.513H784.33v19.233H787.6V992.363h.037l5.265,9.188h2.141l5.259-9.188h.037v12.891H803.6V986.02h-3.277Z" transform="translate(-51.526 -11.833)"/>
        <path class="a" d="M838.178,998.883h-.053a5.071,5.071,0,0,0-4.086-1.783,6.245,6.245,0,0,0-2.525.516,6.137,6.137,0,0,0-2.02,1.415,6.46,6.46,0,0,0-1.336,2.182,7.645,7.645,0,0,0-.489,2.751,7.95,7.95,0,0,0,.31,2.267,6.215,6.215,0,0,0,.884,1.872,6.3,6.3,0,0,0,1.362,1.409,5.8,5.8,0,0,0,1.772.9,7.067,7.067,0,0,0,2.067.305,4.98,4.98,0,0,0,4.2-1.983h.042v1.772H841.2V997.3h-3.024Zm-.973,7.968a3.828,3.828,0,0,1-5.4,0,4.02,4.02,0,0,1-1.057-2.877,4.742,4.742,0,0,1,.3-1.709,3.562,3.562,0,0,1,2.019-2.125,3.809,3.809,0,0,1,1.488-.289,3.451,3.451,0,0,1,2.677,1.183,4.227,4.227,0,0,1,1.062,2.94A3.953,3.953,0,0,1,837.205,1006.851Z" transform="translate(-72.072 -17.085)"/>
        <path class="a" d="M868.164,997.1a5.946,5.946,0,0,0-2.445.516,5.615,5.615,0,0,0-1.983,1.494H863.7V997.3h-3.03v13.206h3.03v-6.637a5.637,5.637,0,0,1,.242-1.72,3.452,3.452,0,0,1,.694-1.268,3,3,0,0,1,1.083-.768,4,4,0,0,1,2.624-.079,2.315,2.315,0,0,1,.894.6,2.688,2.688,0,0,1,.568,1.131,7.183,7.183,0,0,1,.184,1.746v7.005h3.024v-7.784a6.033,6.033,0,0,0-1.288-4.25A4.631,4.631,0,0,0,868.164,997.1Z" transform="translate(-87.716 -17.085)"/>
        <path class="a" d="M894.128,1006.389H894.1l-3.65-8.909H887.27l5.365,12.465-2.377,6.09h3.182L900.7,997.48h-3.172Z" transform="translate(-100.327 -17.265)"/>
        <path class="b" d="M931.691,988.718a8.913,8.913,0,0,0-3.161-1.983,11.444,11.444,0,0,0-4.123-.715H918.29v19.233h6.2a11.719,11.719,0,0,0,4.144-.7,8.511,8.511,0,0,0,3.124-1.962,8.625,8.625,0,0,0,1.946-3.035,10.633,10.633,0,0,0,.689-3.881,10.471,10.471,0,0,0-.71-3.9A8.74,8.74,0,0,0,931.691,988.718Zm-1.157,9.593a6.275,6.275,0,0,1-1.346,2.114,6.1,6.1,0,0,1-2.135,1.388,7.406,7.406,0,0,1-2.761.5h-2.74V988.955h2.924a6.685,6.685,0,0,1,3.387.857,5.964,5.964,0,0,1,2.33,2.393,7.583,7.583,0,0,1,.342,6.106Z" transform="translate(-115.032 -11.833)"/>
        <path class="b" d="M956.911,986.09a2.013,2.013,0,0,0-1.457.589,2,2,0,0,0,0,2.845,2.058,2.058,0,0,0,2.467.316,2.046,2.046,0,0,0,.747-.736,1.946,1.946,0,0,0-.326-2.414A1.956,1.956,0,0,0,956.911,986.09Z" transform="translate(-132.369 -11.866)"/>
        <rect class="b" width="3.029" height="13.206" transform="translate(823.007 980.215)"/>
        <path class="b" d="M978.438,998.883h-.052A5.071,5.071,0,0,0,974.3,997.1a6.281,6.281,0,0,0-2.524.516,6.134,6.134,0,0,0-2.02,1.415,6.544,6.544,0,0,0-1.336,2.182,7.643,7.643,0,0,0-.489,2.751,8.14,8.14,0,0,0,.31,2.267,6.351,6.351,0,0,0,.889,1.872,6.276,6.276,0,0,0,1.357,1.409,5.8,5.8,0,0,0,1.772.9,7.066,7.066,0,0,0,2.067.305,4.99,4.99,0,0,0,4.207-1.983h.037v1.772h2.9V997.3h-3.029Zm-.973,7.968a3.821,3.821,0,0,1-5.4,0,4.019,4.019,0,0,1-1.057-2.877,4.861,4.861,0,0,1,.295-1.709,3.649,3.649,0,0,1,.815-1.31,3.692,3.692,0,0,1,1.21-.815,3.784,3.784,0,0,1,1.483-.289,3.443,3.443,0,0,1,2.677,1.183,4.23,4.23,0,0,1,1.068,2.94A3.935,3.935,0,0,1,977.465,1006.851Z" transform="translate(-138.565 -17.085)"/>
        <rect class="b" width="3.029" height="19.933" transform="translate(846.921 973.488)"/>
        <path class="b" d="M687.607,973.156a6,6,0,0,0,2.177-.4h.005l6.19,9.288,2.188-1.462-6.2-9.288a6.047,6.047,0,1,0-10.271-5.5H678.14v2.63H681.7A6.066,6.066,0,0,0,687.607,973.156Zm-3.419-6.048a3.417,3.417,0,1,1,4.076,3.355,3.356,3.356,0,0,1-.657.063,3.419,3.419,0,0,1-3.419-3.419Z" transform="translate(-1.185 0)"/>
        <path class="a" d="M740.422,1015.06a6.05,6.05,0,0,0-1.315,11.954v2.246H732.27v-8.152h-2.63v10.782h12.1v-4.875a6.05,6.05,0,0,0-1.315-11.954Zm1.315,9.2a3.419,3.419,0,1,1,2.1-3.156A3.409,3.409,0,0,1,741.736,1024.264Z" transform="translate(-25.6 -25.6)"/>
        <path class="b" d="M711.4,1000.027a6.048,6.048,0,1,0-10.414,4.181l-5.1,7.647-10.782-16.172v17.371a6.077,6.077,0,0,0-4.591,4.591H678.27V990.56h-2.63v29.715h4.875a6.05,6.05,0,1,0,7.221-7.221v-8.683l8.152,12.228,7.29-10.929a6.049,6.049,0,0,0,8.226-5.643Zm-24.982,22.352a3.419,3.419,0,1,1,3.419-3.418A3.428,3.428,0,0,1,686.422,1022.379Zm16.088-20.459a3.408,3.408,0,1,1,2.188,1.462A3.428,3.428,0,0,1,702.51,1001.92Z" transform="translate(0 -13.985)"/>
        <path class="a" d="M734.932,961.06a6.067,6.067,0,0,0-5.906,4.734H724.76l-6.7,10.05,2.188,1.462,5.922-8.883h2.856a6.077,6.077,0,0,0,4.591,4.591v13.027h2.63V973.014a6.05,6.05,0,0,0-1.315-11.954Zm1.315,9.2a3.42,3.42,0,0,1-2.63,0,3.465,3.465,0,0,1-1.841-1.841,3.419,3.419,0,1,1,4.47,1.841Z" transform="translate(-20.11 0)"/>
    </g>
</svg>