<svg xmlns="http://www.w3.org/2000/svg" width="156.836" height="25.281" viewBox="0 0 156.836 25.281">
  <g id="Group_69" data-name="Group 69" transform="translate(-1962.164 79.641)">
    <path id="Exclusion_1" data-name="Exclusion 1" d="M33,14H3a3,3,0,0,1-3-3V3A3,3,0,0,1,3,0H33a3,3,0,0,1,3,3v8A3,3,0,0,1,33,14ZM26.006,9.819h2.724L29.082,11h2.256l-2.7-8.185H26.088L23.387,11h2.268l.351-1.18Zm-8.232-7V4.838H19.8V11h2.093V4.838h2.022V2.815Zm-5.729,0V11h5.262V9.036H14.138V7.831h2.818V5.9H14.138V4.767h3.11V2.815Zm-7.039,0V11h3.45a2.968,2.968,0,0,0,2-.654A2.188,2.188,0,0,0,11.2,8.6a2,2,0,0,0-1.03-1.836,1.963,1.963,0,0,0,.76-1.625,2.131,2.131,0,0,0-.731-1.7,2.938,2.938,0,0,0-1.97-.625ZM8.4,9.129H7.1V7.749H8.4a.724.724,0,0,1,.514.187.728.728,0,0,1,0,1A.709.709,0,0,1,8.4,9.129Zm19.8-1.111H26.545l.818-2.783.829,2.782ZM8.175,5.972H7.1V4.685H8.175a.673.673,0,0,1,.479.175.613.613,0,0,1,.187.468.606.606,0,0,1-.187.473A.686.686,0,0,1,8.175,5.972Z" transform="translate(2083 -74)" fill="#ff9200"/>
    <g id="Group_68" data-name="Group 68" transform="translate(-143 40.913)">
      <path id="Path_192" data-name="Path 192" d="M794.007,997.532h-.053l-6.348-11.513H784.33v19.233H787.6V992.363h.037l5.265,9.188h2.141l5.259-9.188h.037v12.891H803.6V986.02h-3.277Z" transform="translate(1320.834 -1105.875)" fill="#2b2d32"/>
      <path id="Path_193" data-name="Path 193" d="M838.178,998.883h-.053a5.071,5.071,0,0,0-4.086-1.783,6.245,6.245,0,0,0-2.525.516,6.137,6.137,0,0,0-2.02,1.415,6.46,6.46,0,0,0-1.336,2.182,7.645,7.645,0,0,0-.489,2.751,7.95,7.95,0,0,0,.31,2.267,6.215,6.215,0,0,0,.884,1.872,6.3,6.3,0,0,0,1.362,1.409,5.8,5.8,0,0,0,1.772.9,7.067,7.067,0,0,0,2.067.305,4.98,4.98,0,0,0,4.2-1.983h.042v1.772H841.2V997.3h-3.024Zm-.973,7.968a3.828,3.828,0,0,1-5.4,0,4.02,4.02,0,0,1-1.057-2.877,4.742,4.742,0,0,1,.3-1.709,3.562,3.562,0,0,1,2.019-2.125,3.809,3.809,0,0,1,1.488-.289,3.451,3.451,0,0,1,2.677,1.183,4.227,4.227,0,0,1,1.062,2.94A3.953,3.953,0,0,1,837.205,1006.851Z" transform="translate(1300.288 -1111.127)" fill="#2b2d32"/>
      <path id="Path_194" data-name="Path 194" d="M868.164,997.1a5.946,5.946,0,0,0-2.445.516,5.615,5.615,0,0,0-1.983,1.494H863.7V997.3h-3.03v13.206h3.03v-6.637a5.637,5.637,0,0,1,.242-1.72,3.452,3.452,0,0,1,.694-1.268,3,3,0,0,1,1.083-.768,4,4,0,0,1,2.624-.079,2.315,2.315,0,0,1,.894.6,2.688,2.688,0,0,1,.568,1.131,7.183,7.183,0,0,1,.184,1.746v7.005h3.024v-7.784a6.033,6.033,0,0,0-1.288-4.25A4.631,4.631,0,0,0,868.164,997.1Z" transform="translate(1284.644 -1111.127)" fill="#2b2d32"/>
      <path id="Path_195" data-name="Path 195" d="M894.128,1006.389H894.1l-3.65-8.909H887.27l5.365,12.465-2.377,6.09h3.182L900.7,997.48h-3.172Z" transform="translate(1272.033 -1111.307)" fill="#2b2d32"/>
      <path id="Path_196" data-name="Path 196" d="M931.691,988.718a8.913,8.913,0,0,0-3.161-1.983,11.444,11.444,0,0,0-4.123-.715H918.29v19.233h6.2a11.719,11.719,0,0,0,4.144-.7,8.511,8.511,0,0,0,3.124-1.962,8.625,8.625,0,0,0,1.946-3.035,10.633,10.633,0,0,0,.689-3.881,10.471,10.471,0,0,0-.71-3.9A8.74,8.74,0,0,0,931.691,988.718Zm-1.157,9.593a6.275,6.275,0,0,1-1.346,2.114,6.1,6.1,0,0,1-2.135,1.388,7.406,7.406,0,0,1-2.761.5h-2.74V988.955h2.924a6.685,6.685,0,0,1,3.387.857,5.964,5.964,0,0,1,2.33,2.393,7.583,7.583,0,0,1,.342,6.106Z" transform="translate(1257.328 -1105.875)" fill="#0080ff"/>
      <path id="Path_197" data-name="Path 197" d="M956.911,986.09a2.013,2.013,0,0,0-1.457.589,2,2,0,0,0,0,2.845,2.058,2.058,0,0,0,2.467.316,2.046,2.046,0,0,0,.747-.736,1.946,1.946,0,0,0-.326-2.414A1.956,1.956,0,0,0,956.911,986.09Z" transform="translate(1239.991 -1105.908)" fill="#0080ff"/>
      <rect id="Rectangle_617" data-name="Rectangle 617" width="3.029" height="13.206" transform="translate(2195.367 -113.827)" fill="#0080ff"/>
      <path id="Path_198" data-name="Path 198" d="M978.438,998.883h-.052A5.071,5.071,0,0,0,974.3,997.1a6.281,6.281,0,0,0-2.524.516,6.134,6.134,0,0,0-2.02,1.415,6.544,6.544,0,0,0-1.336,2.182,7.643,7.643,0,0,0-.489,2.751,8.14,8.14,0,0,0,.31,2.267,6.351,6.351,0,0,0,.889,1.872,6.276,6.276,0,0,0,1.357,1.409,5.8,5.8,0,0,0,1.772.9,7.066,7.066,0,0,0,2.067.305,4.99,4.99,0,0,0,4.207-1.983h.037v1.772h2.9V997.3h-3.029Zm-.973,7.968a3.821,3.821,0,0,1-5.4,0,4.019,4.019,0,0,1-1.057-2.877,4.861,4.861,0,0,1,.295-1.709,3.649,3.649,0,0,1,.815-1.31,3.692,3.692,0,0,1,1.21-.815,3.784,3.784,0,0,1,1.483-.289,3.443,3.443,0,0,1,2.677,1.183,4.23,4.23,0,0,1,1.068,2.94A3.935,3.935,0,0,1,977.465,1006.851Z" transform="translate(1233.795 -1111.127)" fill="#0080ff"/>
      <rect id="Rectangle_618" data-name="Rectangle 618" width="3.029" height="19.933" transform="translate(2219.281 -120.554)" fill="#0080ff"/>
    </g>
  </g>
</svg>
