<svg xmlns="http://www.w3.org/2000/svg" xmlns:xlink="http://www.w3.org/1999/xlink" width="418.339" height="420.252" viewBox="0 0 418.339 420.252"><defs><style>.a{fill:none;}.b{fill:#f6f9fc;}.c{fill:url(#a);}.d{fill:url(#b);}.e{fill:url(#c);}.f{fill:url(#d);}.g,.j,.n,.r{opacity:0.3;mix-blend-mode:multiply;isolation:isolate;}.g{fill:url(#e);}.h{fill:url(#f);}.i{fill:#0080ff;}.j{fill:url(#g);}.k{fill:#d8dee8;}.l{fill:url(#h);}.m{clip-path:url(#i);}.n{fill:url(#j);}.o{fill:url(#k);}.p{fill:url(#l);}.q{fill:#fff;}</style><linearGradient id="a" x1="0.988" y1="-3.18" x2="-0.421" y2="7.353" gradientUnits="objectBoundingBox"><stop offset="0" stop-color="#ffc444"/><stop offset="0.996" stop-color="#f36f56"/></linearGradient><linearGradient id="b" x1="0.373" y1="0.936" x2="-3.033" y2="13.001" xlink:href="#a"/><linearGradient id="c" x1="0.302" y1="1.243" x2="-1.891" y2="11.241" xlink:href="#a"/><linearGradient id="d" x1="-3.13" y1="-0.265" x2="-3.559" y2="0.29" gradientUnits="objectBoundingBox"><stop offset="0" stop-color="#311944"/><stop offset="1" stop-color="#893976"/></linearGradient><linearGradient id="e" x1="-3.556" y1="-0.462" x2="-4.031" y2="0.331" xlink:href="#d"/><linearGradient id="f" x1="-2.363" y1="-1.317" x2="-3.024" y2="-0.565" xlink:href="#d"/><linearGradient id="g" x1="-2.446" y1="-2.617" x2="-2.175" y2="2.118" gradientUnits="objectBoundingBox"><stop offset="0" stop-color="#aa80f9"/><stop offset="0.996" stop-color="#6165d7"/></linearGradient><linearGradient id="h" x1="0.805" y1="0.336" x2="-0.288" y2="0.357" xlink:href="#d"/><clipPath id="i"><path class="a" d="M1341.587,1492.017a56.345,56.345,0,0,0,23.6-16.531,79.727,79.727,0,0,0,15.549-28.915c7.35-23.769,6.125-51.5-3.449-78.072s-26.314-48.714-47.134-62.334a79.726,79.726,0,0,0-30.417-12.355,54.946,54.946,0,0,0-52.317,18.848,79.727,79.727,0,0,0-15.549,28.915c-7.35,23.769-6.125,51.5,3.449,78.072s26.314,48.714,47.134,62.334a79.722,79.722,0,0,0,30.417,12.355A56.341,56.341,0,0,0,1341.587,1492.017Z" transform="translate(-1227.125 -1292.942)"/></clipPath><linearGradient id="j" x1="-10.253" y1="-1.142" x2="-9.727" y2="1.056" gradientUnits="objectBoundingBox"><stop offset="0" stop-color="#ff9085"/><stop offset="1" stop-color="#fb6fbb"/></linearGradient><linearGradient id="k" x1="-2.443" y1="-1.497" x2="-3.934" y2="2.785" xlink:href="#d"/><linearGradient id="l" x1="-3.33" y1="0.144" x2="-2.646" y2="1.653" xlink:href="#j"/></defs><path class="b" d="M658.2,489.7c-18.682,2.177-25-33.352-56.783-41.348-21.5-5.408-40.308,5.392-43.969,7.6C542.4,465.031,529,482.315,527.817,501.8c-1.785,29.384,25.239,46.633,17.041,60.753-6.339,10.919-25.154,5.174-30.3,16.88-4.244,9.652,4.62,22.491,9.99,30.27,14.689,21.276,27.2,19.554,31.755,30.675,8.9,21.726-33.6,41.1-43.525,83.771-7.591,32.639,4.866,74.679,34.658,97,35.688,26.737,85.654,17.238,114.442,0,31.218-18.693,26.271-39.744,51.4-46.423,30.3-8.055,45.472,20.443,102.28,23.535,18.563,1.01,38.44,1.821,49.047-10.9,14.931-17.906,1.726-50.915-.366-56.143-15.778-39.438-51.886-52.323-46.673-67.11,3.277-9.3,20.244-11.866,22.549-12.215,17.123-2.595,25.277,8.162,37.62,3.631,7.239-2.658,14.909-10.2,16.1-18.511,3.442-24.044-49.833-37.461-48.89-62.984.582-15.758,21.125-17.025,39.28-41.708,17.9-24.341,30.473-67.356,11.989-92.643-20.342-27.83-73.709-27.91-106.433-8.429-38.942,23.182-45.048,71.92-63.595,69.465-16.119-2.134-19.055-39.95-34.878-40.327C677.719,460.064,674.425,487.813,658.2,489.7Z" transform="translate(-491.853 -417.579)"/><path class="c" d="M2785.725,2134.1c-5.543-1.851-28.154-9.4-31.756-3.3-4.036,6.834,15.328,31.583,40.759,37.224,12.919,2.865,30.223,1.425,32.037-4.761C2829.092,2155.328,2805.6,2140.733,2785.725,2134.1Z" transform="translate(-2411.036 -1881.572)"/><path class="d" d="M1433.1,588.372c-.707,6.969-6.841,14.966-14.94,14.94-8.432-.027-13.606-8.732-14.94-14.94-1.741-8.106,1.724-18.207,8.175-20.374C1420.085,565.078,1434.3,576.526,1433.1,588.372Z" transform="translate(-1255.278 -545.897)"/><path class="e" d="M1910.833,552.138c-7.876,2.466-19.865,6.22-22.344,16.349-2.324,9.5,4.445,21.61,12.534,23.433,15.808,3.563,39.29-31.582,33.243-40.327C1930.4,546.01,1914.394,551.023,1910.833,552.138Z" transform="translate(-1670.509 -530.038)"/><g transform="translate(0 38.345)"><g transform="translate(0 60.198)"><g transform="translate(0 0)"><path class="f" d="M739.38,2357.637c-9.938,1.583-21.006-1.584-27.953-8.608l-93.4-94.437c-8.1-8.193-7.576-20.816,1.3-28.454,9.116-7.84,28.055-9.292,36.8-.828l101.138,97.915c10.045,9.726,8.384,23.28-3.5,29.989C750.875,2354.843,742.694,2357.109,739.38,2357.637Z" transform="translate(-578.872 -2058.086)"/><path class="g" d="M619.334,2226.138c9.116-7.84,28.055-9.292,36.8-.828l92.091,89.156c-9.753.327-20.157,3.136-32.931-1.709-20.805-7.892-19.114-25.54-36.983-35.682-8.042-4.565-20.778-7.972-41.651-3.649l-18.627-18.834C609.928,2246.4,610.455,2233.775,619.334,2226.138Z" transform="translate(-578.872 -2058.086)"/><ellipse class="h" cx="29.949" cy="31.016" rx="29.949" ry="31.016" transform="translate(0 169.167) rotate(-19.812)"/><path class="i" d="M566.511,1423.977a92.578,92.578,0,0,0,20.743,57.578l188.227,13.279-70.99-203.661Z" transform="translate(-539.694 -1263.653)"/><path class="j" d="M723.3,2274.628c-19.281-1.526-33.671-25.78-52.063-20.05-13.8,4.3-12.38,20.775-25.7,23.545-13.143,2.732-20.995-12.618-36.321-13.176-6.767-.247-12.617,2.548-17.6,6.846a93.445,93.445,0,0,0,17.122,32.725L796.954,2317.8l-36.778-64.876C745.071,2270.619,732.959,2275.392,723.3,2274.628Z" transform="translate(-561.167 -2086.615)"/><ellipse class="k" cx="81.196" cy="107.764" rx="81.196" ry="107.764" transform="translate(88.408 55.041) rotate(-19.812)"/><path class="l" d="M1341.609,1492.017a56.345,56.345,0,0,0,23.6-16.531,79.727,79.727,0,0,0,15.549-28.915c7.35-23.769,6.125-51.5-3.449-78.072s-26.314-48.714-47.134-62.334a79.725,79.725,0,0,0-30.417-12.355,54.946,54.946,0,0,0-52.317,18.848,79.725,79.725,0,0,0-15.549,28.915,109.823,109.823,0,0,0-4.739,31.517c-.127,15.237,19.3,24.1,24.87,39.56,5.924,16.444-2.09,38.182,8.589,50.261a108.857,108.857,0,0,0,21.864,19.067,79.722,79.722,0,0,0,30.417,12.355A56.341,56.341,0,0,0,1341.609,1492.017Z" transform="translate(-1105 -1265.166)"/><g transform="translate(122.146 27.776)"><g class="m"><path class="i" d="M1236.8,1797.868c9.254,25.686-5.324,53.98-32.177,63.067-26.437,8.946-54.864-4.146-63.86-29.118s4.64-52.933,30.822-62.588C1198.176,1759.422,1227.544,1772.181,1236.8,1797.868Z" transform="translate(-1150.855 -1697.672)"/><path class="n" d="M1496.774,1835.753c6.872,19.074,1.644,38.068-11.487,42.362-12.929,4.228-28.679-7.424-35.36-25.968s-1.913-37.376,10.826-42.131C1473.692,1805.187,1489.9,1816.679,1496.774,1835.753Z" transform="translate(-1415.194 -1734.458)"/></g></g></g></g><g transform="translate(213.547 0)"><path class="o" d="M1915.971,848.554s12.731-10.14,19.166-24.427c-13.788-12.442-22.933-28.645-25.064-46.81-5.11-43.554,31.657-84.92,84.355-92.725,53.9-7.982,104.123,21.813,111.859,67.34,0,.015.006.031.008.046q.143.848.267,1.7.018.124.035.249c.079.559.154,1.12.22,1.684a71.7,71.7,0,0,1,.488,7.752q.014,1.648-.049,3.284-.124,3.271-.545,6.486-.209,1.606-.492,3.2-.187,1.06-.406,2.112c-3.432,16.484-12.608,31.5-25.775,43.449q-.42.381-.846.758a100.936,100.936,0,0,1-14.924,10.924q-.505.3-1.015.6-3.567,2.091-7.349,3.932-1.619.788-3.276,1.527-1.1.493-2.224.963-1.68.706-3.395,1.362-1.142.437-2.3.851a117.281,117.281,0,0,1-30.958,6.486q-1.209.088-2.412.15c-.233.012-.466.02-.7.031-.572.027-1.144.053-1.715.071-.253.008-.506.012-.759.019-.554.014-1.108.028-1.661.034-.237,0-.473,0-.71,0-.574,0-1.147,0-1.719,0-.2,0-.406-.006-.609-.009q-.92-.013-1.836-.039l-.466-.016q-1.007-.034-2.008-.084l-.273-.014q-1.128-.06-2.249-.141h-.013a112.812,112.812,0,0,1-18.346-2.847l.018-.022q-5.221-1.269-10.185-3.016C1961.264,850.235,1943.22,863.382,1915.971,848.554Z" transform="translate(-1902.516 -683.3)"/><g transform="translate(0 0.527)"><path class="p" d="M1860.988,780.971c5.11,43.554,50.519,75.856,103.679,71.983,55.824-4.067,98.649-46.1,93.066-93.686s-57.05-79.217-112.39-71.022C1892.645,696.05,1855.878,737.417,1860.988,780.971Z" transform="translate(-1860.514 -686.954)"/><path class="q" d="M1860.988,780.971c5.11,43.554,50.519,75.856,103.679,71.983,55.824-4.067,98.649-46.1,93.066-93.686s-57.05-79.217-112.39-71.022C1892.645,696.05,1855.878,737.417,1860.988,780.971Z" transform="translate(-1860.514 -686.954)"/><path class="q" d="M1959.9,1573.544s-19.862,27.879-55.226,8.634c0,0,24.229-19.292,22.731-42.152Z" transform="translate(-1898.298 -1416.924)"/><g class="r" transform="translate(68.678 22.937)"><path class="i" d="M2345.792,969.938c8.855-25.152-5.589-46.542,8.371-63.842,14.39-17.833,37.641-5.33,59.69-21.276,8.649-6.255,17.861-17.432,23.224-38.917,15.3,12.635,25.6,29.719,27.9,49.377,5.583,47.59-37.242,89.619-93.066,93.686a115.266,115.266,0,0,1-35.474-2.843A51.09,51.09,0,0,0,2345.792,969.938Z" transform="translate(-2336.439 -845.903)"/></g></g></g></g><path class="q" d="M969.714,862.873c-5.351-16.06-13.154-34.486-21.7-34.1-6.38.285-7.908,10.808-14.727,11.627-14.879,1.787-27.111-45.966-37.205-44.181-5.785,1.023-9.4,18.058-6.2,32.555,5.937,26.893,35.624,46.378,47.282,40.306,8.678-4.52,5.11-22.027,12.4-24.028C955.208,843.5,962.865,852.482,969.714,862.873Z" transform="translate(-815.374 -741.533)"/><path class="q" d="M1438.409,973.345c2.98-16.58,1.487-21.475-.775-22.478-3.206-1.422-6.8,5.482-13.177,5.426-10.906-.1-18.781-20.454-19.378-20.153-2.321,1.17,6.825,34.621,15.5,34.1,3.105-.185,4.461-4.643,8.526-4.651C1432.887,965.587,1436.072,969.433,1438.409,973.345Z" transform="translate(-1256.94 -861.306)"/><path class="q" d="M2357.973,2300.7c.22-3.24,33.6-6.76,36.43,1.55,1.37,4.018-5.766,6.794-6.2,13.177-1.1,16.111,42.369,27.728,41.081,32.555-1.478,5.536-61.014-.964-62.784-16.278-.881-7.623,13.015-13.43,10.851-20.928C2375.071,2302.875,2357.815,2303.039,2357.973,2300.7Z" transform="translate(-2072.64 -2025.89)"/><path class="q" d="M2416.825,2081.585c.9-4.524,18.2-8.27,22.478-1.551,2.155,3.382.965,9.334-2.325,11.627C2430.44,2096.217,2415.92,2086.108,2416.825,2081.585Z" transform="translate(-2122.965 -1837.002)"/></svg>