<?xml version="1.0" standalone="no"?>
<!DOCTYPE svg PUBLIC "-//W3C//DTD SVG 20010904//EN"
 "http://www.w3.org/TR/2001/REC-SVG-20010904/DTD/svg10.dtd">
<svg version="1.0" xmlns="http://www.w3.org/2000/svg"
 width="700.000000pt" height="700.000000pt" viewBox="0 0 700.000000 700.000000"
 preserveAspectRatio="xMidYMid meet">
<metadata>
Created by potrace 1.14, written by Peter Selinger 2001-2017
</metadata>
<g transform="translate(0.000000,700.000000) scale(0.100000,-0.100000)"
fill="#000000" stroke="none">
<path d="M834 6985 c-166 -30 -307 -91 -435 -187 -186 -140 -312 -331 -371
-564 l-23 -89 0 -2645 0 -2645 23 -89 c92 -364 357 -634 721 -734 l96 -27
2655 0 2655 0 96 27 c363 100 629 370 721 734 l23 89 0 2645 0 2645 -23 89
c-92 364 -357 634 -721 734 l-96 27 -2625 2 c-2103 1 -2639 -1 -2696 -12z
m2030 -2715 c348 -630 636 -1144 640 -1143 5 1 291 516 636 1145 l627 1143
331 3 332 2 0 -1920 0 -1920 -330 0 -330 0 -2 1285 -3 1286 -524 -916 -524
-915 -216 0 -216 0 -525 917 -525 916 -3 -1286 -2 -1287 -330 0 -330 0 0 1920
0 1920 331 -2 332 -3 631 -1145z"/>
</g>
</svg>
