<?xml version="1.0" standalone="no"?>
<!DOCTYPE svg PUBLIC "-//W3C//DTD SVG 20010904//EN"
 "http://www.w3.org/TR/2001/REC-SVG-20010904/DTD/svg10.dtd">
<svg version="1.0" xmlns="http://www.w3.org/2000/svg"
 width="736.000000pt" height="736.000000pt" viewBox="0 0 736.000000 736.000000"
 preserveAspectRatio="xMidYMid meet">
<metadata>
Created by potrace 1.14, written by Peter Selinger 2001-2017
</metadata>
<g transform="translate(0.000000,736.000000) scale(0.100000,-0.100000)"
fill="#000000" stroke="none">
<path d="M6890 3725 l0 -585 90 0 90 0 0 585 0 585 -90 0 -90 0 0 -585z"/>
<path d="M240 3705 l0 -565 100 0 100 0 2 367 3 367 145 -254 146 -255 68 0
69 0 148 260 149 260 0 -372 0 -373 100 0 100 0 0 565 0 565 -99 0 -99 0 -168
-307 c-92 -170 -175 -320 -184 -335 l-16 -27 -184 335 -183 334 -99 0 -98 0 0
-565z"/>
<path d="M4345 4258 c-3 -7 -4 -260 -3 -563 l3 -550 210 -3 c245 -3 330 9 443
63 387 184 386 813 -3 1000 -113 55 -179 65 -428 65 -165 0 -219 -3 -222 -12z
m543 -207 c74 -40 125 -94 158 -165 84 -185 29 -407 -124 -504 -73 -47 -140
-62 -269 -62 l-113 0 0 386 0 386 143 -4 c140 -3 143 -4 205 -37z"/>
<path d="M5529 4255 c-38 -21 -59 -59 -59 -107 0 -138 191 -161 231 -28 29 96
-83 184 -172 135z"/>
<path d="M1830 3915 c-65 -20 -148 -82 -187 -138 -89 -130 -97 -338 -20 -470
35 -58 92 -110 157 -144 50 -25 65 -28 160 -28 118 0 147 10 213 73 l37 36 0
-52 0 -52 85 0 85 0 0 390 0 390 -90 0 -90 0 0 -46 0 -46 -41 36 c-23 19 -62
42 -87 50 -56 19 -161 20 -222 1z m256 -186 c93 -62 127 -209 73 -314 -37 -74
-92 -108 -178 -113 -74 -4 -126 14 -167 60 -101 111 -71 312 57 377 62 31 160
26 215 -10z"/>
<path d="M2901 3911 c-55 -21 -68 -29 -113 -70 l-28 -25 0 52 0 52 -90 0 -90
0 0 -390 0 -390 90 0 90 0 0 210 c0 245 8 297 57 351 43 47 87 63 166 57 52
-4 64 -9 88 -36 43 -48 49 -88 49 -344 l0 -238 90 0 90 0 2 248 c2 136 -1 271
-5 300 -14 97 -66 175 -142 215 -59 30 -182 34 -254 8z"/>
<path d="M6147 3920 c-103 -26 -183 -93 -234 -198 -38 -75 -38 -77 -38 -196 0
-112 2 -125 29 -184 43 -92 125 -165 217 -193 129 -39 253 -15 337 64 l32 31
0 -52 0 -52 85 0 85 0 0 390 0 390 -90 0 -90 0 0 -46 0 -46 -31 27 c-59 49
-109 68 -189 71 -41 2 -92 -1 -113 -6z m206 -173 c42 -18 101 -85 117 -132 7
-21 10 -68 8 -110 -3 -62 -8 -80 -33 -116 -76 -107 -239 -124 -328 -33 -50 50
-62 82 -62 169 0 110 35 174 120 218 37 20 134 22 178 4z"/>
<path d="M3400 3911 c0 -5 68 -167 150 -359 83 -193 150 -357 150 -366 0 -8
-29 -90 -65 -181 -36 -92 -65 -169 -65 -171 0 -3 43 -3 96 -2 l95 3 204 524
c113 288 207 532 210 542 6 18 0 19 -88 19 l-95 0 -57 -152 c-32 -84 -77 -201
-99 -260 l-41 -106 -105 259 -105 259 -92 0 c-51 0 -93 -4 -93 -9z"/>
<path d="M5500 3530 l0 -390 90 0 90 0 -2 388 -3 387 -87 3 -88 3 0 -391z"/>
</g>
</svg>
